<?xml version="1.0" encoding="UTF-8"?>
<svg id="Capa_2" data-name="Capa 2" xmlns="http://www.w3.org/2000/svg" viewBox="0 0 14.61 16">
  <defs>
    <style>
      .cls-1 {
        fill: #191919;
      }
    </style>
  </defs>
  <g id="Capa_1-2" data-name="Capa 1">
    <g>
      <path class="cls-1" d="M8.17,7.82c-2.43-.9-3.42-1.65-3.42-3.33,0-1.51,1.07-2.43,2.84-2.43.87,0,1.71.26,2.46.67.2,1.36.64,2.64.93,3.3.17.35.38.43.7.43h1.65l.46-5.27c-1.71-.78-3.97-1.19-5.94-1.19C3.33,0,0,2.35,0,6.2c0,1.97.67,3.25,1.66,4.16,0,0,0,0,0,0,.33-.14.64-.3.91-.45h.61v1.5c.79.42,1.65.75,2.49,1.08.13.05.25.09.38.14v-1.11c-.31.08-.77.15-1.08.2l-.17-.73c.86-.28,1.84-.68,2.58-1.08h.61v3.54c1.11.59,1.79,1.31,1.85,2.55h4.57c.13-.5.19-1.05.19-1.63,0-4.06-3.19-5.36-6.43-6.55Z"/>
      <path class="cls-1" d="M3.19,11.41c-.56-.3-1.08-.64-1.53-1.05-.54.24-1.12.46-1.66.63l.17.73c.31-.05.77-.12,1.08-.2v3.31c0,.25-.09.32-.9.5-.13.02-.15.1-.15.22v.46h3.85c.09,0,.12-.01.12-.06v-.54l-.98-.25v-3.74Z"/>
      <path class="cls-1" d="M7.99,13.45c-.54-.29-1.2-.55-1.93-.82v2.2c0,.25-.09.32-.9.5-.13.02-.15.1-.15.22v.46h3.85c.09,0,.12-.01.12-.06v-.54l-.98-.25v-1.7Z"/>
    </g>
  </g>
</svg>